<svg width="240" height="240" viewBox="0 0 240 240" fill="none" xmlns="http://www.w3.org/2000/svg">
<path d="M17 102.532C17 159.955 17.0237 189.495 17.0591 190.341C17.2839 195.113 18.0645 198.969 19.5844 202.849C20.2231 204.481 21.5241 206.959 22.494 208.402C26.8702 214.877 33.8368 219.443 42.7549 221.678C44.8661 222.211 46.4747 222.489 49.4553 222.849C50.2064 222.944 56.682 222.95 137.123 222.968L223.985 222.985V136.483C223.985 79.5916 223.961 49.5316 223.926 48.6741C223.447 38.1533 219.792 30.1519 212.832 24.3858C207.841 20.2462 200.933 17.4016 193.322 16.3607C192.837 16.2898 192.021 16.1892 191.518 16.136C190.655 16.0355 185.498 16.0296 103.804 16.0177L17 16V102.532ZM120.936 50.0047C125.827 50.259 130.434 50.9568 134.656 52.0805C136.082 52.459 139.115 53.4643 140.57 54.038C146.289 56.3089 151.511 59.526 156.177 63.6597C158.424 65.653 161.558 69.0886 161.99 70.0409C162.369 70.857 162.008 71.8151 161.174 72.2466C160.973 72.3473 160.843 72.365 160.5 72.3473C159.956 72.3238 159.488 72.0932 158.874 71.5489C153.202 66.5635 144.947 62.7256 136.637 61.2176C129.978 60.0051 123.716 59.875 117.447 60.8033C112.751 61.5014 107.991 62.891 103.614 64.8426C102.361 65.4046 99.8058 66.7112 98.7 67.3619C96.2991 68.7693 93.6911 70.6206 92.1654 71.9925L91.8398 72.2883L92.1654 72.2351C93.6437 71.9982 96.772 71.6674 99.0846 71.5015C103.561 71.1821 109.339 71.1821 114.549 71.5077C123.136 72.0337 132.409 73.4531 139.872 75.3754C147.117 77.244 155.319 80.4078 160.979 83.5245C174.108 90.7453 181.707 99.3913 183.499 109.143C183.783 110.699 183.854 111.533 183.854 113.372C183.86 115.164 183.812 115.779 183.558 117.363C183.197 119.658 182.328 122.384 181.335 124.366C181.027 124.975 180.093 126.607 179.584 127.417C176.491 132.337 171.795 136.773 165.734 140.499C162.646 142.391 158.738 144.284 155.585 145.401C154.947 145.632 154.829 145.65 154.29 145.656C153.77 145.661 153.658 145.644 153.374 145.508C152.918 145.295 152.693 145.088 152.522 144.715C152.221 144.089 152.356 143.367 152.877 142.793C153.001 142.657 153.463 142.29 153.9 141.977C159.968 137.684 164.663 132.515 167.319 127.21C168.265 125.318 169.081 122.875 169.424 120.942C169.708 119.333 169.785 117.08 169.607 115.566C168.898 109.51 165.196 103.78 158.572 98.4749C155.136 95.725 151.334 93.3591 146.514 90.964C142.61 89.0244 139.311 87.676 134.568 86.0735C126.957 83.501 118.441 81.8745 109.02 81.2004C103.597 80.8158 96.5298 80.7688 91.0414 81.0819C88.688 81.2181 85.8964 81.4607 84.0867 81.6794L83.7913 81.7149L83.2236 82.6729C80.9527 86.4931 79.2907 90.5559 78.1318 95.1572C76.606 101.183 76.0915 107.819 76.6415 114.229C77.215 120.829 79.1076 127.955 82.0642 134.656C83.0165 136.808 84.43 139.57 85.3819 141.137C86.1332 142.361 86.2099 142.533 86.2397 143C86.2574 143.337 86.2397 143.479 86.151 143.686C85.7252 144.639 84.7254 144.964 83.6787 144.485C83.2946 144.313 82.7978 143.881 81.4552 142.569C71.9932 133.331 66.0023 120.705 64.6717 107.192C64.453 105.004 64.4055 103.886 64.4055 101.396C64.4055 98.9065 64.4588 97.7178 64.6717 95.571C65.0265 91.9518 65.7597 88.2495 66.6942 85.3639C66.9013 84.719 66.9368 84.5593 66.8596 84.577C66.032 84.7544 62.2646 85.7125 60.94 86.0793C58.0186 86.8896 53.3998 88.309 51.9687 88.835C50.9219 89.2196 50.6617 89.2848 50.1709 89.255C49.6623 89.2315 49.3074 89.0896 48.9999 88.788C48.7101 88.5041 48.6214 88.285 48.5919 87.7825C48.5682 87.3744 48.58 87.2857 48.722 87.0019C48.9585 86.5228 49.4908 86.0616 50.3246 85.6122C52.8262 84.2697 53.7902 83.7849 55.8245 82.8446C59.5148 81.1352 64.2224 79.2545 68.3619 77.8295C69.7755 77.3447 69.7812 77.3447 69.9054 77.114C69.9764 76.9836 70.3015 76.3746 70.6386 75.7595C72.4722 72.3708 74.6247 69.3255 77.2207 66.4571C78.1553 65.4223 80.2488 63.3701 81.2836 62.4772C84.7254 59.4964 88.327 57.1309 91.8398 55.5342C99.2145 52.181 106.335 50.4364 114.401 50.0106C115.738 49.9397 119.635 49.9397 120.936 50.0047ZM137.111 158.051V193.889H128.772H120.433V158.051V122.213H128.772H137.111V158.051ZM111.149 167.779V193.889H106.063H100.977V167.779V141.669H106.063H111.149V167.779Z" fill="currentColor"/>
</svg>
