<svg width="240" height="240" viewBox="0 0 240 240" fill="none" xmlns="http://www.w3.org/2000/svg">
<path fill-rule="evenodd" clip-rule="evenodd" d="M476.094 105.118H464.062L463.068 109.515H476.094C488.014 109.515 492.035 112.743 492.035 122.305V126.936C489.08 123.925 483.854 122.396 476.47 122.396C464.687 122.396 458.959 127.48 458.959 137.931V138.692C458.959 148.495 464.601 153.463 475.722 153.463H478.714C490.498 153.463 496.475 148.495 496.475 138.692V122.305C496.475 110.1 490.566 105.118 476.094 105.118ZM492.035 139.328C492.035 146.341 488.267 149.073 478.591 149.073H476.719C467.385 149.073 463.399 145.967 463.399 138.692V137.931C463.399 130.031 467.197 126.661 476.094 126.661H476.846C487.492 126.661 492.035 129.919 492.035 137.551V139.328ZM167.145 113.735L169.512 102.006H149.139V85.9887L134.842 88.1871V136.039C134.842 152.586 141.218 157.506 158.607 157.506H166.22L168.587 145.882H159.635C151.711 145.882 149.139 143.894 149.139 135.097V113.735H167.145ZM68.8884 80.4367V131.853C68.8884 150.911 77.5297 158.865 96.3593 158.865C115.91 158.865 124.551 151.118 124.551 131.954V127.034C124.551 109.026 116.524 100.226 99.037 100.226C93.48 100.226 87.4107 101.377 83.2916 104.622V78.1296L68.8884 80.4333V80.4367ZM96.875 111.744C106.753 111.744 110.25 115.723 110.25 127.558V131.954C110.25 143.473 106.753 147.455 96.6701 147.455C86.5876 147.455 83.0867 143.473 83.0867 131.853V125.879C83.0867 115.302 86.5876 111.744 96.875 111.744ZM201.717 100.226C182.888 100.226 174.246 108.289 174.246 126.718V129.545C174.246 147.034 181.757 155.515 199.453 155.515C205.112 155.515 210.772 154.472 214.781 151.224V153.32C214.781 163.163 210.563 166.405 200.686 166.405H194.773C191.392 166.466 189.855 167.078 187.82 170.476H187.809C170.844 197.798 141.393 214.491 109.294 214.491C58.0818 214.491 16.4161 172.086 16.4161 119.964C16.4161 67.841 58.0818 25.4395 109.294 25.4395C145.266 25.4395 177.99 46.6419 193.301 79.6382H197.571C181.959 44.3042 147.37 21.498 109.29 21.498C55.9471 21.498 12.5464 65.6697 12.5464 119.967C12.5464 174.261 55.9471 218.432 109.294 218.432C140.665 218.432 169.618 203.122 187.669 177.716H201.509C219.72 177.716 229.082 170.7 229.082 152.793V125.781C229.082 107.976 220.134 100.226 201.717 100.226ZM214.887 131.326C214.887 141.169 211.489 144.204 201.717 144.204C190.706 144.204 188.547 140.33 188.547 128.92V127.14C188.547 115.825 190.501 111.748 201.717 111.748C212.725 111.748 214.887 115.723 214.887 127.242V131.326ZM505.638 153.463H510.079V86.9571H505.638V153.463ZM405.629 109.515L406.623 105.122H386.769V92.5669L382.206 93.396V136.406C382.206 148.658 386.714 153.211 398.839 153.211H405.397L406.227 148.821H398.839C389.699 148.821 386.769 145.865 386.769 136.657V109.515H405.629ZM446.731 134.374C446.731 145.695 443.251 149.324 432.414 149.324C421.894 149.324 418.342 145.553 418.342 134.374V105.118H413.782V134.374C413.782 148.295 419.008 153.718 432.414 153.718C445.734 153.718 451.168 148.115 451.168 134.374V105.118H446.728L446.731 134.374ZM346.333 131.2V127.133C346.333 114.123 350.698 109.515 363.021 109.515H373.431L374.422 105.122H363.021C348.324 105.122 341.766 111.911 341.766 127.133V131.2C341.766 146.422 348.324 153.211 363.021 153.211H373.554L374.548 148.821H363.021C351.009 148.821 346.333 143.881 346.333 131.2ZM313.472 105.122H301.439L300.446 109.515H313.472C325.297 109.515 329.286 112.743 329.286 122.305V126.936C326.332 123.925 321.106 122.396 313.722 122.396C301.938 122.396 296.214 127.48 296.214 137.931V138.692C296.214 148.495 301.894 153.463 313.097 153.463H316.092C327.793 153.463 333.726 148.495 333.726 138.692V122.305C333.726 110.1 327.858 105.122 313.472 105.122ZM329.286 139.328C329.286 146.429 325.676 149.073 315.966 149.073H314.097C304.671 149.073 300.65 145.967 300.65 138.692V137.931C300.65 130.031 304.449 126.661 313.346 126.661H314.097C324.743 126.661 329.286 129.919 329.286 137.551V139.328ZM268.791 104.361C254.719 104.361 248.161 111.435 248.161 126.627V167.944H252.601V146.728C255.812 150.975 261.803 153.463 269.04 153.463C283.047 153.463 289.294 146.599 289.294 131.2V126.498C289.294 111.187 282.972 104.361 268.791 104.361ZM284.731 131.2C284.731 144.231 280.479 149.073 269.04 149.073C258.213 149.073 252.724 143.701 252.724 133.103V126.627C252.724 113.929 257.38 108.751 268.791 108.751C280.26 108.751 284.731 113.725 284.731 126.498V131.2Z" fill="currentColor"/>
</svg>
