<svg width="240" height="240" viewBox="0 0 240 240" fill="none" xmlns="http://www.w3.org/2000/svg">
<style>
  .itau-bg { fill: currentColor; }
  .itau-text { fill: currentColor; opacity: 0.9; }
  .itau-accent { fill: currentColor; opacity: 0.7; }
</style>
<path fill-rule="evenodd" clip-rule="evenodd" d="M54.876 16.0784L186.356 16.1562C206.994 16.1562 224 33.1609 223.921 53.8769V185.356C223.921 206.074 206.916 223.001 186.202 223.001L54.6434 222.923C33.9274 222.847 17.0005 205.921 17.0005 185.203L17.1545 53.7213C17.1545 33.0069 34.083 16.0006 54.876 16.0784Z" class="itau-bg"/>
<path fill-rule="evenodd" clip-rule="evenodd" d="M194.781 110.457H179.786L173.602 122.205H184.114L194.781 110.457ZM204.752 129.55H190.144V161.086C190.144 170.749 183.649 173.53 178.859 173.53C174.297 173.53 169.272 171.829 169.351 163.403V129.548H154.742L154.665 165.49C154.665 179.402 162.628 185.586 173.604 185.586C181.255 185.663 187.209 182.338 190.531 176.466H190.685V184.119H204.753V129.55H204.752ZM143.3 144.002C143.3 130.477 129.081 128.081 121.195 128.081C109.832 128.081 98.0062 130.477 96.2279 147.172H110.373C110.837 144.003 112.151 139.596 119.417 139.596C123.204 139.596 129.081 139.908 129.081 145.936C129.081 149.027 126.22 149.957 123.9 150.265L110.76 152.197C101.407 153.511 94.4512 158.999 94.4512 169.667C94.4512 180.951 103.108 185.588 111.379 185.588C121.428 185.588 126.142 181.029 129.389 177.705C129.697 180.721 129.929 181.493 130.78 184.122L143.38 184.044C143.38 178.014 143.302 173.608 143.302 173.532L143.3 144.002ZM81.0015 110.457H66.3927V129.471H58.8176V139.752H66.3149V172.911C66.3149 179.944 68.5568 184.738 81.2333 184.738H83.1664C85.4845 184.738 87.8025 184.581 90.0461 184.507V173.606C89.041 173.684 87.9598 173.838 87.0309 173.838C81.0793 173.838 80.9237 172.601 80.9237 169.353L81.0015 139.75H90.1223V129.47H81.0015V110.457ZM52.0935 110.379H36.3249L36.2471 184.042H52.0149L52.0935 110.379Z" class="itau-text"/>
<path fill-rule="evenodd" clip-rule="evenodd" d="M129.081 164.562V157.529C127.611 158.688 125.136 159.615 119.108 160.466C113.62 161.392 109.137 162.784 109.137 168.737C109.137 173.683 113.157 175.306 115.938 175.306C122.433 175.308 129.081 171.211 129.081 164.562Z" class="itau-accent"/>
</svg>
