<svg width="240" height="240" viewBox="0 0 240 240" fill="none" xmlns="http://www.w3.org/2000/svg">
<path d="M147.06 183.454V135.487L123.177 159.47L147.06 183.454ZM205.196 159.467C205.196 150.918 199.082 146.789 190.334 146.789H166.975V172.157H190.334C199.082 172.146 205.196 168.017 205.196 159.467ZM198.021 23H41.9562C25.5085 23 17 31.8196 17 48.9196V190.08C17 207.168 25.4975 216 41.9554 216H147.06V210.487C147.06 200.835 150.254 195.323 157.679 192.297V191.745H128.218C126.632 191.745 126.096 191.464 125.036 190.362L109.649 173.825L93.7269 190.643C92.9287 191.477 92.3923 191.745 90.7958 191.745H67.1853C65.8514 191.745 65.8514 190.913 66.6497 190.092L96.9089 159.493L66.1133 128.612C65.3151 127.78 65.5888 126.96 66.9226 126.96H90.8179C92.1414 126.96 92.6778 127.229 93.4643 128.062L110.186 145.431L125.845 128.062C126.655 127.229 127.18 126.96 128.241 126.96H190.619C204.945 126.96 217.696 131.92 222.464 146.815H223V48.9438C222.977 31.8189 214.48 23 198.021 23ZM190.858 191.719H167.773C167.237 191.719 166.975 192.001 166.975 192.552V215.985H198.021C214.469 215.985 222.977 207.166 222.977 190.065V172.145H222.441C217.662 187.039 205.458 191.719 190.858 191.719Z" fill="currentColor"/>
</svg>
