<svg width="240" height="240" viewBox="0 0 240 240" fill="none" xmlns="http://www.w3.org/2000/svg">
<style>
  .agora-bg { fill: currentColor; }
  .agora-arrow { fill: currentColor; opacity: 0.7; }
  .agora-text { fill: currentColor; opacity: 0.9; }
</style>
<path d="M165.144 23H64.707V123.453H165.144V23Z" class="agora-bg"/>
<path fill-rule="evenodd" clip-rule="evenodd" d="M118.115 49.9434L137.554 96.5118H131.122L114.603 57.9796L98.7253 96.5118H92.293L111.087 49.9434H118.115Z" class="agora-arrow"/>
<path d="M124.082 199.89C121.86 199.893 119.687 199.238 117.838 198.007C115.989 196.777 114.547 195.026 113.695 192.977C112.842 190.928 112.618 188.672 113.049 186.495C113.48 184.318 114.549 182.318 116.118 180.748C117.688 179.177 119.689 178.107 121.868 177.673C124.047 177.239 126.306 177.46 128.359 178.309C130.412 179.157 132.166 180.595 133.401 182.44C134.636 184.285 135.295 186.454 135.295 188.673C135.296 190.145 135.007 191.603 134.444 192.963C133.881 194.323 133.055 195.56 132.014 196.601C130.973 197.643 129.736 198.469 128.375 199.033C127.014 199.598 125.555 199.889 124.082 199.89ZM124.082 172.998C120.976 172.995 117.94 173.912 115.357 175.632C112.773 177.353 110.759 179.8 109.568 182.665C108.378 185.529 108.064 188.682 108.668 191.724C109.272 194.767 110.766 197.562 112.96 199.756C115.155 201.95 117.951 203.445 120.997 204.051C124.042 204.658 127.199 204.348 130.068 203.162C132.937 201.976 135.389 199.966 137.115 197.388C138.84 194.809 139.761 191.777 139.761 188.676C139.761 184.521 138.11 180.536 135.17 177.596C132.23 174.656 128.242 173.002 124.082 172.998Z" class="agora-text"/>
<path d="M162.13 186.095V177.956H171.19C171.726 177.945 172.259 178.039 172.758 178.234C173.257 178.429 173.713 178.72 174.1 179.09C174.487 179.461 174.797 179.904 175.012 180.395C175.227 180.885 175.344 181.413 175.355 181.948C175.366 182.484 175.271 183.016 175.076 183.515C174.881 184.013 174.59 184.469 174.219 184.855C173.848 185.241 173.404 185.551 172.913 185.766C172.422 185.981 171.894 186.097 171.358 186.108H171.19L162.13 186.095ZM179.718 182.013C179.718 179.752 178.819 177.583 177.218 175.984C175.617 174.385 173.446 173.486 171.182 173.486H157.661V203.863H162.124V190.55H169.185L176.29 203.857H181.326L173.971 190.069C175.648 189.489 177.102 188.401 178.131 186.957C179.16 185.513 179.713 183.785 179.713 182.013H179.718Z" class="agora-text"/>
<path d="M77.6227 190.556H87.8116V192.99C87.2963 194.476 86.4366 195.819 85.3029 196.909C83.1234 198.89 80.263 199.955 77.3171 199.883C75.4668 199.888 73.644 199.437 72.0104 198.569C70.3769 197.701 68.9833 196.444 67.9536 194.908C66.924 193.373 66.2901 191.607 66.1084 189.768C65.9266 187.929 66.2026 186.074 66.9118 184.367C67.621 182.66 68.7415 181.154 70.1736 179.984C71.6057 178.814 73.3051 178.016 75.1207 177.66C76.9363 177.304 78.8117 177.401 80.5804 177.944C82.3491 178.486 83.9562 179.457 85.2588 180.769L88.2879 177.483C86.45 175.679 84.1959 174.355 81.7244 173.628C79.2529 172.9 76.6402 172.792 74.1168 173.312C71.5934 173.831 69.2369 174.964 67.2553 176.609C65.2738 178.253 63.7281 180.36 62.7546 182.743C61.7812 185.126 61.41 187.711 61.6738 190.271C61.9376 192.831 62.8282 195.287 64.2671 197.422C65.706 199.557 67.6489 201.305 69.9244 202.512C72.1998 203.719 74.7378 204.348 77.3143 204.344C80.634 204.472 83.9027 203.498 86.6096 201.575C89.3164 199.651 91.3088 196.885 92.2753 193.711V186.094H77.6255L77.6227 190.556Z" class="agora-text"/>
<path d="M206.462 192.074L211.791 179.32L217.122 192.074H206.462ZM214.173 173.48H209.384L196.675 203.86H201.508L204.57 196.532H218.961L222.023 203.86H226.856L214.159 173.486L214.173 173.48Z" class="agora-text"/>
<path d="M42.6173 163.088H34.268L32.4863 167.343H42.6146L42.6173 163.088Z" class="agora-text"/>
<path d="M26.9982 192.074L32.3267 179.32L37.6579 192.074H26.9982ZM29.9502 173.48L17.2417 203.86H22.0745L25.1339 196.532H39.5194L42.5816 203.86H47.4117L34.7169 173.48H29.9502Z" class="agora-text"/>
</svg>
