<svg width="4667" height="4667" viewBox="0 0 4667 4667" fill="none" xmlns="http://www.w3.org/2000/svg">
<g clip-path="url(#clip0_1_5)">
<path d="M-6.95387e-05 1950.93C-6.95387e-05 3245.6 0.533264 3911.6 1.33326 3930.67C6.39993 4038.27 23.9999 4125.2 58.2666 4212.67C72.6666 4249.47 102 4305.33 123.867 4337.87C222.533 4483.87 379.6 4586.8 580.667 4637.2C628.267 4649.2 664.533 4655.47 731.733 4663.6C748.667 4665.73 894.667 4665.87 2708.27 4666.27L4666.67 4666.67V2716.4C4666.67 1433.73 4666.13 756 4665.33 736.666C4654.53 499.466 4572.13 319.066 4415.2 189.066C4302.67 95.7329 4146.93 31.5996 3975.33 8.13293C3964.4 6.53293 3946 4.26626 3934.67 3.06626C3915.2 0.799594 3798.93 0.666261 1957.07 0.399594L-6.95387e-05 -0.000406146V1950.93ZM2343.33 766.666C2453.6 772.4 2557.47 788.133 2652.67 813.466C2684.8 822 2753.2 844.666 2786 857.6C2914.93 908.8 3032.67 981.333 3137.87 1074.53C3188.53 1119.47 3259.2 1196.93 3268.93 1218.4C3277.47 1236.8 3269.33 1258.4 3250.53 1268.13C3246 1270.4 3243.07 1270.8 3235.33 1270.4C3223.07 1269.87 3212.53 1264.67 3198.67 1252.4C3070.8 1140 2884.67 1053.47 2697.33 1019.47C2547.2 992.133 2406 989.2 2264.67 1010.13C2158.8 1025.87 2051.47 1057.2 1952.8 1101.2C1924.53 1113.87 1866.93 1143.33 1842 1158C1787.87 1189.73 1729.07 1231.47 1694.67 1262.4L1687.33 1269.07L1694.67 1267.87C1728 1262.53 1798.53 1255.07 1850.67 1251.33C1951.6 1244.13 2081.87 1244.13 2199.33 1251.47C2392.93 1263.33 2602 1295.33 2770.27 1338.67C2933.6 1380.8 3118.53 1452.13 3246.13 1522.4C3542.13 1685.2 3713.47 1880.13 3753.87 2100C3760.27 2135.07 3761.87 2153.87 3761.87 2195.33C3762 2235.73 3760.93 2249.6 3755.2 2285.33C3747.07 2337.07 3727.47 2398.53 3705.07 2443.2C3698.13 2456.93 3677.07 2493.73 3665.6 2512C3595.87 2622.93 3490 2722.93 3353.33 2806.93C3283.73 2849.6 3195.6 2892.27 3124.53 2917.47C3110.13 2922.67 3107.47 2923.07 3095.33 2923.2C3083.6 2923.33 3081.07 2922.93 3074.67 2919.87C3064.4 2915.07 3059.33 2910.4 3055.47 2902C3048.67 2887.87 3051.73 2871.6 3063.47 2858.67C3066.27 2855.6 3076.67 2847.33 3086.53 2840.27C3223.33 2743.47 3329.2 2626.93 3389.07 2507.33C3410.4 2464.67 3428.8 2409.6 3436.53 2366C3442.93 2329.73 3444.67 2278.93 3440.67 2244.8C3424.67 2108.27 3341.2 1979.07 3191.87 1859.47C3114.4 1797.47 3028.67 1744.13 2920 1690.13C2832 1646.4 2757.6 1616 2650.67 1579.87C2479.07 1521.87 2287.07 1485.2 2074.67 1470C1952.4 1461.33 1793.07 1460.27 1669.33 1467.33C1616.27 1470.4 1553.33 1475.87 1512.53 1480.8L1505.87 1481.6L1493.07 1503.2C1441.87 1589.33 1404.4 1680.93 1378.27 1784.67C1343.87 1920.53 1332.27 2070.13 1344.67 2214.67C1357.6 2363.47 1400.27 2524.13 1466.93 2675.2C1488.4 2723.73 1520.27 2786 1541.73 2821.33C1558.67 2848.93 1560.4 2852.8 1561.07 2863.33C1561.47 2870.93 1561.07 2874.13 1559.07 2878.8C1549.47 2900.27 1526.93 2907.6 1503.33 2896.8C1494.67 2892.93 1483.47 2883.2 1453.2 2853.6C1239.87 2645.33 1104.8 2360.67 1074.8 2056C1069.87 2006.67 1068.8 1981.47 1068.8 1925.33C1068.8 1869.2 1070 1842.4 1074.8 1794C1082.8 1712.4 1099.33 1628.93 1120.4 1563.87C1125.07 1549.33 1125.87 1545.73 1124.13 1546.13C1105.47 1550.13 1020.53 1571.73 990.667 1580C924.8 1598.27 820.667 1630.27 788.4 1642.13C764.8 1650.8 758.933 1652.27 747.867 1651.6C736.4 1651.07 728.4 1647.87 721.467 1641.07C714.933 1634.67 712.933 1629.73 712.267 1618.4C711.733 1609.2 712 1607.2 715.2 1600.8C720.533 1590 732.533 1579.6 751.333 1569.47C807.733 1539.2 829.467 1528.27 875.333 1507.07C958.533 1468.53 1064.67 1426.13 1158 1394C1189.87 1383.07 1190 1383.07 1192.8 1377.87C1194.4 1374.93 1201.73 1361.2 1209.33 1347.33C1250.67 1270.93 1299.2 1202.27 1357.73 1137.6C1378.8 1114.27 1426 1068 1449.33 1047.87C1526.93 980.666 1608.13 927.333 1687.33 891.333C1853.6 815.733 2014.13 776.4 2196 766.8C2226.13 765.2 2314 765.2 2343.33 766.666ZM2708 3202.67V4010.67H2520H2332V3202.67V2394.67H2520H2708V3202.67ZM2122.67 3422V4010.67H2008H1893.33V3422V2833.33H2008H2122.67V3422Z" fill="#E51736"/>
</g>
<defs>
<clipPath id="clip0_1_5">
<rect width="4666.67" height="4666.67" fill="white"/>
</clipPath>
</defs>
</svg>
