<svg width="2177" height="2264" viewBox="0 0 2177 2264" fill="none" xmlns="http://www.w3.org/2000/svg">
<g clip-path="url(#clip0_1_70)">
<path fill-rule="evenodd" clip-rule="evenodd" d="M1090.23 79.5132L67.5674 764.965L493.222 1041.36L1001.79 698.625L800.061 566.113L1076.38 380.982L1675.99 778.882L692.295 1439.28L905.064 1580.19L2129.14 765.069L2126.37 762.306L1090.23 79.5132ZM2110.06 79.7985L1684.55 361.645L1897.3 505.324L2110.06 361.645V79.7985ZM60.5508 2140.5L486.076 1858.67L273.32 1714.97L60.5508 1858.67V2140.5Z" fill="#33348E"/>
<path fill-rule="evenodd" clip-rule="evenodd" d="M1089.77 2139.92L2112.42 1454.45L1686.78 1178.05L1178.22 1520.79L1379.93 1653.3L1103.62 1838.45L504.013 1440.53L1487.69 780.153L1274.94 639.224L50.8496 1454.35L53.6122 1457.14L1089.77 2139.92Z" fill="#33348E"/>
</g>
<defs>
<clipPath id="clip0_1_70">
<rect width="2177" height="2264" fill="white"/>
</clipPath>
</defs>
</svg>
