<svg width="57" height="47" viewBox="0 0 57 47" fill="none" xmlns="http://www.w3.org/2000/svg">
<g clip-path="url(#clip0_1_42)">
<path fill-rule="evenodd" clip-rule="evenodd" d="M-45.0838 15.4461L-50.4058 28.7091H-43.0407L-45.0597 15.3921L-45.0838 15.4461ZM-73.2777 45.8931L-51.4468 0.944077H-34.9408L-25.7367 45.8931H-40.2267L-41.2948 39.9021H-55.3528L-58.5867 45.8931H-73.2777ZM-18.8757 45.8931L-12.5518 0.944077L-11.4621 2L-4.27176 45.8931H-18.8757ZM78.2372 15.3921L72.8942 28.7091H80.2562L78.2372 15.3921ZM92.0253 44.5L71.8532 0.944077H88.3562L97.5633 45.8931H83.0702L82.0052 39.9021H67.9442L64.7103 45.8931L92.0253 44.5Z" fill="#0070AF"/>
<path fill-rule="evenodd" clip-rule="evenodd" d="M17.7393 24.8751H36.0363L48.5733 45.6381H30.2733L17.7393 24.8751Z" fill="#0070AF"/>
<path fill-rule="evenodd" clip-rule="evenodd" d="M19.6412 21.6861H38.5532L54.9782 1.01011H36.0662L19.6412 21.6861Z" fill="#F6822A"/>
<path fill-rule="evenodd" clip-rule="evenodd" d="M0.732269 45.7641H19.6412L36.0662 24.8361H17.1543L0.732269 45.7641Z" fill="#F6822A"/>
<path fill-rule="evenodd" clip-rule="evenodd" d="M7.55127 0.758123H25.2003L37.2933 21.6861H19.6412L7.55127 0.758123Z" fill="#0070AF"/>
</g>
<defs>
<clipPath id="clip0_1_42">
<rect width="56" height="47" fill="white" transform="translate(0.51265)"/>
</clipPath>
</defs>
</svg>
